<?xml version="1.0" encoding="UTF-8" standalone="no"?>
<!-- Created with Inkscape (http://www.inkscape.org/) -->

<svg
   xmlns:dc="http://purl.org/dc/elements/1.1/"
   xmlns:cc="http://creativecommons.org/ns#"
   xmlns:rdf="http://www.w3.org/1999/02/22-rdf-syntax-ns#"
   xmlns:svg="http://www.w3.org/2000/svg"
   xmlns="http://www.w3.org/2000/svg"
   xmlns:sodipodi="http://sodipodi.sourceforge.net/DTD/sodipodi-0.dtd"
   xmlns:inkscape="http://www.inkscape.org/namespaces/inkscape"
   width="210mm"
   height="297mm"
   viewBox="0 0 210 297"
   version="1.1"
   id="svg8"
   inkscape:export-filename="C:\Users\JeanN\Documents\Repositorios\Cofrinho\Artes\Madeira.png"
   inkscape:export-xdpi="95"
   inkscape:export-ydpi="95"
   inkscape:version="0.92.4 (5da689c313, 2019-01-14)"
   sodipodi:docname="Madeira.svg">
  <defs
     id="defs2">
    <clipPath
       clipPathUnits="userSpaceOnUse"
       id="clipPath138">
      <rect
         y="18.548475"
         x="18.09935"
         height="89.104485"
         width="169.85542"
         id="rect140"
         style="opacity:1;fill:#784421;fill-opacity:1;stroke:none;stroke-width:1;stroke-miterlimit:4;stroke-dasharray:none;stroke-opacity:1" />
    </clipPath>
    <clipPath
       clipPathUnits="userSpaceOnUse"
       id="clipPath142">
      <rect
         y="18.548475"
         x="18.09935"
         height="89.104485"
         width="169.85542"
         id="rect144"
         style="opacity:1;fill:#784421;fill-opacity:1;stroke:none;stroke-width:1;stroke-miterlimit:4;stroke-dasharray:none;stroke-opacity:1" />
    </clipPath>
    <clipPath
       clipPathUnits="userSpaceOnUse"
       id="clipPath146">
      <rect
         y="18.548475"
         x="18.09935"
         height="89.104485"
         width="169.85542"
         id="rect148"
         style="opacity:1;fill:#784421;fill-opacity:1;stroke:none;stroke-width:1;stroke-miterlimit:4;stroke-dasharray:none;stroke-opacity:1" />
    </clipPath>
    <clipPath
       clipPathUnits="userSpaceOnUse"
       id="clipPath150">
      <rect
         y="18.548475"
         x="18.09935"
         height="89.104485"
         width="169.85542"
         id="rect152"
         style="opacity:1;fill:#784421;fill-opacity:1;stroke:none;stroke-width:1;stroke-miterlimit:4;stroke-dasharray:none;stroke-opacity:1" />
    </clipPath>
    <clipPath
       clipPathUnits="userSpaceOnUse"
       id="clipPath154">
      <rect
         y="18.548475"
         x="18.09935"
         height="89.104485"
         width="169.85542"
         id="rect156"
         style="opacity:1;fill:#784421;fill-opacity:1;stroke:none;stroke-width:1;stroke-miterlimit:4;stroke-dasharray:none;stroke-opacity:1" />
    </clipPath>
    <clipPath
       clipPathUnits="userSpaceOnUse"
       id="clipPath158">
      <rect
         y="18.548475"
         x="18.09935"
         height="89.104485"
         width="169.85542"
         id="rect160"
         style="opacity:1;fill:#784421;fill-opacity:1;stroke:none;stroke-width:1;stroke-miterlimit:4;stroke-dasharray:none;stroke-opacity:1" />
    </clipPath>
    <clipPath
       clipPathUnits="userSpaceOnUse"
       id="clipPath162">
      <rect
         y="18.548475"
         x="18.09935"
         height="89.104485"
         width="169.85542"
         id="rect164"
         style="opacity:1;fill:#784421;fill-opacity:1;stroke:none;stroke-width:1;stroke-miterlimit:4;stroke-dasharray:none;stroke-opacity:1" />
    </clipPath>
    <clipPath
       clipPathUnits="userSpaceOnUse"
       id="clipPath166">
      <rect
         y="18.548475"
         x="18.09935"
         height="89.104485"
         width="169.85542"
         id="rect168"
         style="opacity:1;fill:#784421;fill-opacity:1;stroke:none;stroke-width:1;stroke-miterlimit:4;stroke-dasharray:none;stroke-opacity:1" />
    </clipPath>
    <clipPath
       clipPathUnits="userSpaceOnUse"
       id="clipPath170">
      <rect
         y="18.548475"
         x="18.09935"
         height="89.104485"
         width="169.85542"
         id="rect172"
         style="opacity:1;fill:#784421;fill-opacity:1;stroke:none;stroke-width:1;stroke-miterlimit:4;stroke-dasharray:none;stroke-opacity:1" />
    </clipPath>
    <clipPath
       clipPathUnits="userSpaceOnUse"
       id="clipPath174">
      <rect
         y="18.548475"
         x="18.09935"
         height="89.104485"
         width="169.85542"
         id="rect176"
         style="opacity:1;fill:#784421;fill-opacity:1;stroke:none;stroke-width:1;stroke-miterlimit:4;stroke-dasharray:none;stroke-opacity:1" />
    </clipPath>
    <clipPath
       clipPathUnits="userSpaceOnUse"
       id="clipPath178">
      <rect
         y="18.548475"
         x="18.09935"
         height="89.104485"
         width="169.85542"
         id="rect180"
         style="opacity:1;fill:#784421;fill-opacity:1;stroke:none;stroke-width:1;stroke-miterlimit:4;stroke-dasharray:none;stroke-opacity:1" />
    </clipPath>
    <clipPath
       clipPathUnits="userSpaceOnUse"
       id="clipPath182">
      <rect
         y="18.548475"
         x="18.09935"
         height="89.104485"
         width="169.85542"
         id="rect184"
         style="opacity:1;fill:#784421;fill-opacity:1;stroke:none;stroke-width:1;stroke-miterlimit:4;stroke-dasharray:none;stroke-opacity:1" />
    </clipPath>
    <clipPath
       clipPathUnits="userSpaceOnUse"
       id="clipPath186">
      <rect
         y="18.548475"
         x="18.09935"
         height="89.104485"
         width="169.85542"
         id="rect188"
         style="opacity:1;fill:#784421;fill-opacity:1;stroke:none;stroke-width:1;stroke-miterlimit:4;stroke-dasharray:none;stroke-opacity:1" />
    </clipPath>
    <clipPath
       clipPathUnits="userSpaceOnUse"
       id="clipPath190">
      <rect
         y="18.548475"
         x="18.09935"
         height="89.104485"
         width="169.85542"
         id="rect192"
         style="opacity:1;fill:#784421;fill-opacity:1;stroke:none;stroke-width:1;stroke-miterlimit:4;stroke-dasharray:none;stroke-opacity:1" />
    </clipPath>
    <clipPath
       clipPathUnits="userSpaceOnUse"
       id="clipPath194">
      <rect
         y="18.548475"
         x="18.09935"
         height="89.104485"
         width="169.85542"
         id="rect196"
         style="opacity:1;fill:#784421;fill-opacity:1;stroke:none;stroke-width:1;stroke-miterlimit:4;stroke-dasharray:none;stroke-opacity:1" />
    </clipPath>
    <clipPath
       clipPathUnits="userSpaceOnUse"
       id="clipPath198">
      <rect
         y="18.548475"
         x="18.09935"
         height="89.104485"
         width="169.85542"
         id="rect200"
         style="opacity:1;fill:#784421;fill-opacity:1;stroke:none;stroke-width:1;stroke-miterlimit:4;stroke-dasharray:none;stroke-opacity:1" />
    </clipPath>
    <clipPath
       clipPathUnits="userSpaceOnUse"
       id="clipPath202">
      <rect
         y="18.548475"
         x="18.09935"
         height="89.104485"
         width="169.85542"
         id="rect204"
         style="opacity:1;fill:#784421;fill-opacity:1;stroke:none;stroke-width:1;stroke-miterlimit:4;stroke-dasharray:none;stroke-opacity:1" />
    </clipPath>
    <clipPath
       clipPathUnits="userSpaceOnUse"
       id="clipPath206">
      <rect
         y="18.548475"
         x="18.09935"
         height="89.104485"
         width="169.85542"
         id="rect208"
         style="opacity:1;fill:#784421;fill-opacity:1;stroke:none;stroke-width:1;stroke-miterlimit:4;stroke-dasharray:none;stroke-opacity:1" />
    </clipPath>
    <clipPath
       clipPathUnits="userSpaceOnUse"
       id="clipPath210">
      <rect
         y="18.548475"
         x="18.09935"
         height="89.104485"
         width="169.85542"
         id="rect212"
         style="opacity:1;fill:#784421;fill-opacity:1;stroke:none;stroke-width:1;stroke-miterlimit:4;stroke-dasharray:none;stroke-opacity:1" />
    </clipPath>
    <clipPath
       clipPathUnits="userSpaceOnUse"
       id="clipPath214">
      <rect
         y="18.548475"
         x="18.09935"
         height="89.104485"
         width="169.85542"
         id="rect216"
         style="opacity:1;fill:#784421;fill-opacity:1;stroke:none;stroke-width:1;stroke-miterlimit:4;stroke-dasharray:none;stroke-opacity:1" />
    </clipPath>
    <clipPath
       clipPathUnits="userSpaceOnUse"
       id="clipPath218">
      <rect
         y="18.548475"
         x="18.09935"
         height="89.104485"
         width="169.85542"
         id="rect220"
         style="opacity:1;fill:#784421;fill-opacity:1;stroke:none;stroke-width:1;stroke-miterlimit:4;stroke-dasharray:none;stroke-opacity:1" />
    </clipPath>
    <clipPath
       clipPathUnits="userSpaceOnUse"
       id="clipPath222">
      <rect
         y="18.548475"
         x="18.09935"
         height="89.104485"
         width="169.85542"
         id="rect224"
         style="opacity:1;fill:#784421;fill-opacity:1;stroke:none;stroke-width:1;stroke-miterlimit:4;stroke-dasharray:none;stroke-opacity:1" />
    </clipPath>
    <clipPath
       clipPathUnits="userSpaceOnUse"
       id="clipPath226">
      <rect
         y="18.548475"
         x="18.09935"
         height="89.104485"
         width="169.85542"
         id="rect228"
         style="opacity:1;fill:#784421;fill-opacity:1;stroke:none;stroke-width:1;stroke-miterlimit:4;stroke-dasharray:none;stroke-opacity:1" />
    </clipPath>
    <clipPath
       clipPathUnits="userSpaceOnUse"
       id="clipPath230">
      <rect
         y="18.548475"
         x="18.09935"
         height="89.104485"
         width="169.85542"
         id="rect232"
         style="opacity:1;fill:#784421;fill-opacity:1;stroke:none;stroke-width:1;stroke-miterlimit:4;stroke-dasharray:none;stroke-opacity:1" />
    </clipPath>
    <clipPath
       clipPathUnits="userSpaceOnUse"
       id="clipPath234">
      <rect
         y="18.548475"
         x="18.09935"
         height="89.104485"
         width="169.85542"
         id="rect236"
         style="opacity:1;fill:#784421;fill-opacity:1;stroke:none;stroke-width:1;stroke-miterlimit:4;stroke-dasharray:none;stroke-opacity:1" />
    </clipPath>
    <clipPath
       clipPathUnits="userSpaceOnUse"
       id="clipPath238">
      <rect
         y="18.548475"
         x="18.09935"
         height="89.104485"
         width="169.85542"
         id="rect240"
         style="opacity:1;fill:#784421;fill-opacity:1;stroke:none;stroke-width:1;stroke-miterlimit:4;stroke-dasharray:none;stroke-opacity:1" />
    </clipPath>
    <clipPath
       clipPathUnits="userSpaceOnUse"
       id="clipPath242">
      <rect
         y="18.548475"
         x="18.09935"
         height="89.104485"
         width="169.85542"
         id="rect244"
         style="opacity:1;fill:#784421;fill-opacity:1;stroke:none;stroke-width:1;stroke-miterlimit:4;stroke-dasharray:none;stroke-opacity:1" />
    </clipPath>
    <clipPath
       clipPathUnits="userSpaceOnUse"
       id="clipPath246">
      <rect
         y="18.548475"
         x="18.09935"
         height="89.104485"
         width="169.85542"
         id="rect248"
         style="opacity:1;fill:#784421;fill-opacity:1;stroke:none;stroke-width:1;stroke-miterlimit:4;stroke-dasharray:none;stroke-opacity:1" />
    </clipPath>
    <clipPath
       clipPathUnits="userSpaceOnUse"
       id="clipPath250">
      <rect
         y="18.548475"
         x="18.09935"
         height="89.104485"
         width="169.85542"
         id="rect252"
         style="opacity:1;fill:#784421;fill-opacity:1;stroke:none;stroke-width:1;stroke-miterlimit:4;stroke-dasharray:none;stroke-opacity:1" />
    </clipPath>
    <clipPath
       clipPathUnits="userSpaceOnUse"
       id="clipPath254">
      <rect
         y="18.548475"
         x="18.09935"
         height="89.104485"
         width="169.85542"
         id="rect256"
         style="opacity:1;fill:#784421;fill-opacity:1;stroke:none;stroke-width:1;stroke-miterlimit:4;stroke-dasharray:none;stroke-opacity:1" />
    </clipPath>
    <clipPath
       clipPathUnits="userSpaceOnUse"
       id="clipPath258">
      <rect
         y="18.548475"
         x="18.09935"
         height="89.104485"
         width="169.85542"
         id="rect260"
         style="opacity:1;fill:#784421;fill-opacity:1;stroke:none;stroke-width:1;stroke-miterlimit:4;stroke-dasharray:none;stroke-opacity:1" />
    </clipPath>
    <clipPath
       clipPathUnits="userSpaceOnUse"
       id="clipPath262">
      <rect
         y="18.548475"
         x="18.09935"
         height="89.104485"
         width="169.85542"
         id="rect264"
         style="opacity:1;fill:#784421;fill-opacity:1;stroke:none;stroke-width:1;stroke-miterlimit:4;stroke-dasharray:none;stroke-opacity:1" />
    </clipPath>
    <clipPath
       clipPathUnits="userSpaceOnUse"
       id="clipPath266">
      <rect
         y="18.548475"
         x="18.09935"
         height="89.104485"
         width="169.85542"
         id="rect268"
         style="opacity:1;fill:#784421;fill-opacity:1;stroke:none;stroke-width:1;stroke-miterlimit:4;stroke-dasharray:none;stroke-opacity:1" />
    </clipPath>
    <clipPath
       clipPathUnits="userSpaceOnUse"
       id="clipPath270">
      <rect
         y="18.548475"
         x="18.09935"
         height="89.104485"
         width="169.85542"
         id="rect272"
         style="opacity:1;fill:#784421;fill-opacity:1;stroke:none;stroke-width:1;stroke-miterlimit:4;stroke-dasharray:none;stroke-opacity:1" />
    </clipPath>
    <clipPath
       clipPathUnits="userSpaceOnUse"
       id="clipPath274">
      <rect
         y="18.548475"
         x="18.09935"
         height="89.104485"
         width="169.85542"
         id="rect276"
         style="opacity:1;fill:#784421;fill-opacity:1;stroke:none;stroke-width:1;stroke-miterlimit:4;stroke-dasharray:none;stroke-opacity:1" />
    </clipPath>
    <clipPath
       clipPathUnits="userSpaceOnUse"
       id="clipPath278">
      <rect
         y="18.548475"
         x="18.09935"
         height="89.104485"
         width="169.85542"
         id="rect280"
         style="opacity:1;fill:#784421;fill-opacity:1;stroke:none;stroke-width:1;stroke-miterlimit:4;stroke-dasharray:none;stroke-opacity:1" />
    </clipPath>
    <clipPath
       clipPathUnits="userSpaceOnUse"
       id="clipPath282">
      <rect
         y="18.548475"
         x="18.09935"
         height="89.104485"
         width="169.85542"
         id="rect284"
         style="opacity:1;fill:#784421;fill-opacity:1;stroke:none;stroke-width:1;stroke-miterlimit:4;stroke-dasharray:none;stroke-opacity:1" />
    </clipPath>
    <clipPath
       clipPathUnits="userSpaceOnUse"
       id="clipPath286">
      <rect
         y="18.548475"
         x="18.09935"
         height="89.104485"
         width="169.85542"
         id="rect288"
         style="opacity:1;fill:#784421;fill-opacity:1;stroke:none;stroke-width:1;stroke-miterlimit:4;stroke-dasharray:none;stroke-opacity:1" />
    </clipPath>
    <clipPath
       clipPathUnits="userSpaceOnUse"
       id="clipPath290">
      <rect
         y="18.548475"
         x="18.09935"
         height="89.104485"
         width="169.85542"
         id="rect292"
         style="opacity:1;fill:#784421;fill-opacity:1;stroke:none;stroke-width:1;stroke-miterlimit:4;stroke-dasharray:none;stroke-opacity:1" />
    </clipPath>
    <clipPath
       clipPathUnits="userSpaceOnUse"
       id="clipPath294">
      <rect
         y="18.548475"
         x="18.09935"
         height="89.104485"
         width="169.85542"
         id="rect296"
         style="opacity:1;fill:#784421;fill-opacity:1;stroke:none;stroke-width:1;stroke-miterlimit:4;stroke-dasharray:none;stroke-opacity:1" />
    </clipPath>
    <clipPath
       clipPathUnits="userSpaceOnUse"
       id="clipPath298">
      <rect
         y="18.548475"
         x="18.09935"
         height="89.104485"
         width="169.85542"
         id="rect300"
         style="opacity:1;fill:#784421;fill-opacity:1;stroke:none;stroke-width:1;stroke-miterlimit:4;stroke-dasharray:none;stroke-opacity:1" />
    </clipPath>
    <clipPath
       clipPathUnits="userSpaceOnUse"
       id="clipPath302">
      <rect
         y="18.548475"
         x="18.09935"
         height="89.104485"
         width="169.85542"
         id="rect304"
         style="opacity:1;fill:#784421;fill-opacity:1;stroke:none;stroke-width:1;stroke-miterlimit:4;stroke-dasharray:none;stroke-opacity:1" />
    </clipPath>
    <clipPath
       clipPathUnits="userSpaceOnUse"
       id="clipPath306">
      <rect
         y="18.548475"
         x="18.09935"
         height="89.104485"
         width="169.85542"
         id="rect308"
         style="opacity:1;fill:#784421;fill-opacity:1;stroke:none;stroke-width:1;stroke-miterlimit:4;stroke-dasharray:none;stroke-opacity:1" />
    </clipPath>
    <clipPath
       clipPathUnits="userSpaceOnUse"
       id="clipPath310">
      <rect
         y="18.548475"
         x="18.09935"
         height="89.104485"
         width="169.85542"
         id="rect312"
         style="opacity:1;fill:#784421;fill-opacity:1;stroke:none;stroke-width:1;stroke-miterlimit:4;stroke-dasharray:none;stroke-opacity:1" />
    </clipPath>
    <clipPath
       clipPathUnits="userSpaceOnUse"
       id="clipPath314">
      <rect
         y="18.548475"
         x="18.09935"
         height="89.104485"
         width="169.85542"
         id="rect316"
         style="opacity:1;fill:#784421;fill-opacity:1;stroke:none;stroke-width:1;stroke-miterlimit:4;stroke-dasharray:none;stroke-opacity:1" />
    </clipPath>
    <clipPath
       clipPathUnits="userSpaceOnUse"
       id="clipPath318">
      <rect
         y="18.548475"
         x="18.09935"
         height="89.104485"
         width="169.85542"
         id="rect320"
         style="opacity:1;fill:#784421;fill-opacity:1;stroke:none;stroke-width:1;stroke-miterlimit:4;stroke-dasharray:none;stroke-opacity:1" />
    </clipPath>
    <clipPath
       clipPathUnits="userSpaceOnUse"
       id="clipPath322">
      <rect
         y="18.548475"
         x="18.09935"
         height="89.104485"
         width="169.85542"
         id="rect324"
         style="opacity:1;fill:#784421;fill-opacity:1;stroke:none;stroke-width:1;stroke-miterlimit:4;stroke-dasharray:none;stroke-opacity:1" />
    </clipPath>
    <clipPath
       clipPathUnits="userSpaceOnUse"
       id="clipPath326">
      <rect
         y="18.548475"
         x="18.09935"
         height="89.104485"
         width="169.85542"
         id="rect328"
         style="opacity:1;fill:#784421;fill-opacity:1;stroke:none;stroke-width:1;stroke-miterlimit:4;stroke-dasharray:none;stroke-opacity:1" />
    </clipPath>
    <clipPath
       clipPathUnits="userSpaceOnUse"
       id="clipPath330">
      <rect
         y="18.548475"
         x="18.09935"
         height="89.104485"
         width="169.85542"
         id="rect332"
         style="opacity:1;fill:#784421;fill-opacity:1;stroke:none;stroke-width:1;stroke-miterlimit:4;stroke-dasharray:none;stroke-opacity:1" />
    </clipPath>
    <clipPath
       clipPathUnits="userSpaceOnUse"
       id="clipPath334">
      <rect
         y="18.548475"
         x="18.09935"
         height="89.104485"
         width="169.85542"
         id="rect336"
         style="opacity:1;fill:#784421;fill-opacity:1;stroke:none;stroke-width:1;stroke-miterlimit:4;stroke-dasharray:none;stroke-opacity:1" />
    </clipPath>
    <clipPath
       clipPathUnits="userSpaceOnUse"
       id="clipPath338">
      <rect
         y="18.548475"
         x="18.09935"
         height="89.104485"
         width="169.85542"
         id="rect340"
         style="opacity:1;fill:#784421;fill-opacity:1;stroke:none;stroke-width:1;stroke-miterlimit:4;stroke-dasharray:none;stroke-opacity:1" />
    </clipPath>
    <clipPath
       clipPathUnits="userSpaceOnUse"
       id="clipPath342">
      <rect
         y="18.548475"
         x="18.09935"
         height="89.104485"
         width="169.85542"
         id="rect344"
         style="opacity:1;fill:#784421;fill-opacity:1;stroke:none;stroke-width:1;stroke-miterlimit:4;stroke-dasharray:none;stroke-opacity:1" />
    </clipPath>
    <clipPath
       clipPathUnits="userSpaceOnUse"
       id="clipPath346">
      <rect
         y="18.548475"
         x="18.09935"
         height="89.104485"
         width="169.85542"
         id="rect348"
         style="opacity:1;fill:#784421;fill-opacity:1;stroke:none;stroke-width:1;stroke-miterlimit:4;stroke-dasharray:none;stroke-opacity:1" />
    </clipPath>
    <clipPath
       clipPathUnits="userSpaceOnUse"
       id="clipPath350">
      <rect
         y="18.548475"
         x="18.09935"
         height="89.104485"
         width="169.85542"
         id="rect352"
         style="opacity:1;fill:#784421;fill-opacity:1;stroke:none;stroke-width:1;stroke-miterlimit:4;stroke-dasharray:none;stroke-opacity:1" />
    </clipPath>
  </defs>
  <sodipodi:namedview
     id="base"
     pagecolor="#ffffff"
     bordercolor="#666666"
     borderopacity="1.0"
     inkscape:pageopacity="0.0"
     inkscape:pageshadow="2"
     inkscape:zoom="0.53751164"
     inkscape:cx="149.11084"
     inkscape:cy="868.26131"
     inkscape:document-units="mm"
     inkscape:current-layer="layer1"
     showgrid="false"
     inkscape:window-width="1366"
     inkscape:window-height="705"
     inkscape:window-x="-8"
     inkscape:window-y="-8"
     inkscape:window-maximized="1" />
  <metadata
     id="metadata5">
    <rdf:RDF>
      <cc:Work
         rdf:about="">
        <dc:format>image/svg+xml</dc:format>
        <dc:type
           rdf:resource="http://purl.org/dc/dcmitype/StillImage" />
        <dc:title></dc:title>
      </cc:Work>
    </rdf:RDF>
  </metadata>
  <g
     inkscape:label="Camada 1"
     inkscape:groupmode="layer"
     id="layer1">
    <g
       id="g408">
      <rect
         clip-path="url(#clipPath350)"
         y="18.548475"
         x="18.09935"
         height="89.104485"
         width="169.85542"
         id="rect10"
         style="opacity:1;fill:#784421;fill-opacity:1;stroke:none;stroke-width:1;stroke-miterlimit:4;stroke-dasharray:none;stroke-opacity:1" />
      <path
         clip-path="url(#clipPath346)"
         inkscape:connector-curvature="0"
         id="path14"
         d="m 27.811412,26.269428 c 1.558753,0 3.117504,0 4.676257,0 0.410196,0 0.82836,-0.08045 1.230592,0 0.179885,0.03598 0.318207,0.188108 0.492239,0.246118 0.159465,0.05316 1.029094,0 1.230593,0 0.656315,0 1.312632,0 1.96895,0 0.738354,0 1.476711,0 2.215068,0 0.128701,0 0.91976,-0.03236 0.984475,0 0.103772,0.05189 0.142345,0.194234 0.246118,0.246119 0.109675,0.05484 0.89672,-0.01754 0.984475,0 0.254394,0.05088 0.483962,0.195241 0.738356,0.24612 0.321787,0.06436 0.656315,0 0.984475,0 1.230593,0 2.461186,0 3.691779,0 0.4102,0 0.820396,0 1.230596,0 0.164078,0 0.328157,0 0.492236,0 0.08204,0 0.172741,-0.03669 0.246118,0 0.103775,0.05189 0.142346,0.194231 0.246121,0.246118 0.157273,0.07864 0.786373,-0.06603 0.984474,0 0.17403,0.05801 0.328158,0.164079 0.492237,0.246118 0.328157,0.164079 0.647247,0.347713 0.984474,0.492239 0.476912,0.204388 0.994961,0.299535 1.476711,0.492236 0.656318,0.262528 0.414322,0.328983 1.230596,0.492236 0.160893,0.03218 0.328157,0 0.492236,0 0.4102,0 0.820396,0 1.230593,0 1.230596,0 2.461189,0 3.691782,0 0.656317,0 1.312632,0 1.968949,0 0.08204,0 0.188109,0.05801 0.246118,0 0.05801,-0.05801 -0.07338,-0.209428 0,-0.246118 0.146757,-0.07338 0.33658,0.05189 0.492239,0 0.110067,-0.03669 0.142346,-0.19423 0.246118,-0.246118 0.07338,-0.03669 0.164079,0 0.246118,0 0.246118,-0.08204 0.506315,-0.130098 0.738357,-0.246118 0.103772,-0.05189 0.142346,-0.194233 0.246118,-0.246118 0.07338,-0.03669 0.168288,0.02596 0.246118,0 0.174033,-0.05801 0.318207,-0.188108 0.492239,-0.246121 0.15566,-0.05188 0.34548,0.07338 0.492236,0 0.103772,-0.05188 0.142346,-0.19423 0.246118,-0.246118 0.07338,-0.03669 0.188108,0.05801 0.246121,0 0.05801,-0.05801 -0.05801,-0.188108 0,-0.246118 0.05032,-0.05032 0.64077,0.04879 0.738354,0 0.103775,-0.05189 0.142346,-0.194233 0.246121,-0.246118 0.09758,-0.04879 0.688038,0.05031 0.738354,0 0.05801,-0.05801 -0.05801,-0.188108 0,-0.24612 0.0079,-0.0079 0.678667,0 0.738357,0 0.984475,0 1.96895,0 2.953424,0 0.574279,0 1.148554,0 1.722832,0 0.246118,0 0.504867,-0.07783 0.738354,0 0.11007,0.03669 0.142349,0.194233 0.246121,0.24612 0.07338,0.03669 0.164079,0 0.246118,0 0.247854,0 1.340604,-0.04537 1.476711,0 0.110069,0.03669 0.142346,0.194231 0.246121,0.246118 0.154691,0.07735 0.829783,-0.07735 0.984475,0 0.608258,0.304128 -0.08496,0.246118 0.492236,0.246118"
         style="fill:none;stroke:#502d16;stroke-width:0.26458332px;stroke-linecap:butt;stroke-linejoin:miter;stroke-opacity:1" />
      <path
         clip-path="url(#clipPath342)"
         inkscape:connector-curvature="0"
         id="path16"
         d="m 45.039721,42.759381 c -0.0254,-0.366287 1.884479,-0.203883 1.96895,-0.246118 0.103772,-0.05189 0.136051,-0.209431 0.246118,-0.246118 0.15566,-0.05189 0.32816,0 0.492239,0 0.246118,0 0.497017,0.04827 0.738357,0 0.179882,-0.03598 0.314266,-0.201629 0.492236,-0.246121 0.23877,-0.05969 0.492239,0 0.738357,0 0.574275,0 1.148553,0 1.722829,0 1.476713,0 2.953424,0 4.430138,0 0.492236,0 0.984475,0 1.476711,0 0.216993,0 0.528645,0.05243 0.738357,0 0.251685,-0.06292 0.486669,-0.183198 0.738357,-0.246118 0.159178,-0.0398 0.336576,0.05189 0.492236,0 0.174032,-0.05801 0.318206,-0.188108 0.492239,-0.246118 0.155657,-0.05189 0.328157,0 0.492236,0 0.410199,0 0.820396,0 1.230593,0 1.312635,0 2.625267,0 3.937899,0 1.312635,0 2.625267,0 3.9379,0 0.201199,0 1.598091,-0.04158 1.722831,0 0.110067,0.03669 0.142346,0.19423 0.246118,0.246118 0.146757,0.07338 0.34548,-0.07338 0.492239,0 0.103772,0.05189 0.142346,0.194233 0.246118,0.246118 0.157274,0.07864 0.786374,-0.06603 0.984475,0 0.348065,0.116022 0.63641,0.376216 0.984475,0.492239 0.233487,0.07783 0.497017,-0.04827 0.738354,0 0.254394,0.05088 0.483963,0.195238 0.738357,0.246118 0.160893,0.03218 0.333058,-0.0398 0.492239,0 0.177966,0.04449 0.318204,0.188108 0.492236,0.246118 0.133202,0.0444 0.900628,0 0.984475,0 0.492239,0 0.984475,0 1.476713,0 1.72283,0 3.445661,0 5.168493,0"
         style="fill:none;stroke:#502d16;stroke-width:0.26458332px;stroke-linecap:butt;stroke-linejoin:miter;stroke-opacity:1" />
      <path
         clip-path="url(#clipPath338)"
         inkscape:connector-curvature="0"
         id="path18"
         d="m 72.605015,35.621939 c 5.332572,0 10.665145,0 15.997717,0 0.902435,0 1.804871,0 2.707306,0 0.328158,0 0.656315,0 0.984475,0 0.246118,0 0.49471,-0.03481 0.738354,0 0.33486,0.04784 0.647896,0.21246 0.984475,0.246118 0.489794,0.04898 0.984475,0 1.476714,0 0.246118,0 0.497017,-0.04827 0.738354,0 0.179885,0.03598 0.314269,0.201628 0.492239,0.246118 0.159178,0.0398 0.331345,-0.03218 0.492236,0 0.254394,0.05088 0.483962,0.195241 0.738357,0.24612 0.321786,0.06436 0.656317,0 0.984475,0 0.820396,0 1.640793,0 2.461193,0 0.82039,0 1.64078,0 2.46118,0 0.24612,0 0.49224,0 0.73836,0 0.32816,0 0.65961,0.04641 0.98447,0 0.25683,-0.03669 0.48245,-0.20347 0.73836,-0.24612 0.40461,-0.06744 0.82039,0 1.23059,0 0.49224,0 0.98448,0 1.47671,0 0.16408,0 0.33658,0.05189 0.49224,0 0.17403,-0.05801 0.31235,-0.21014 0.49224,-0.246118 0.24134,-0.04827 0.49223,0 0.73836,0 0.24611,0 0.49223,0 0.73835,0 0.16408,0 0.33134,0.03218 0.49224,0 0.25439,-0.05088 0.48396,-0.195239 0.73835,-0.246118 0.32179,-0.06436 0.65632,0 0.98448,0 0.082,0 0.16829,0.02596 0.24612,0 0.17403,-0.05801 0.3182,-0.188109 0.49223,-0.246119 0.13887,-0.04629 0.57663,0 0.73836,0 0.65632,0 1.31263,0 1.96895,0"
         style="fill:none;stroke:#502d16;stroke-width:0.26458332px;stroke-linecap:butt;stroke-linejoin:miter;stroke-opacity:1" />
      <path
         clip-path="url(#clipPath334)"
         inkscape:connector-curvature="0"
         id="path20"
         d="m 92.294513,29.222853 c 2.215068,0 4.430136,0 6.645204,0 0.492238,0 0.984474,0 1.476713,0 0.24612,0 0.49471,0.03481 0.73835,0 0.33486,-0.04784 0.64962,-0.198281 0.98448,-0.246121 0.24365,-0.03481 0.49224,0 0.73836,0 0.49223,0 0.98447,0 1.47671,0 1.55875,0 3.1175,0 4.67625,0 1.2306,0 2.46119,0 3.69178,0 0.40755,0 1.38945,0.05557 1.72283,0 0.25591,-0.04265 0.48246,-0.203467 0.73836,-0.246118 0.24277,-0.04046 0.49224,0 0.73836,0 0.57427,0 1.14855,0 1.72283,0 1.47671,0 2.95342,0 4.43013,0 1.14856,0 2.29711,0 3.44567,0 0.49223,0 0.98447,0 1.47671,0 0.16408,0 0.33306,-0.03979 0.49224,0 0.17796,0.04449 0.3182,0.188108 0.49223,0.246118 0.0778,0.02596 0.16408,0 0.24612,0 0.20881,0 1.31342,-0.04082 1.47671,0 0.17797,0.04449 0.31821,0.188109 0.49224,0.246121 0.26153,0.08717 0.72295,-0.08718 0.98448,0 0.11006,0.03669 0.14234,0.194231 0.24612,0.246118 0.0897,0.04485 1.08878,0 1.23059,0 0.82039,0 1.64079,0 2.46119,0 0.57427,0 1.14855,0 1.72283,0 0.16407,0 0.33134,-0.03218 0.49223,0 0.2544,0.05088 0.48246,0.203467 0.73836,0.246118 0.40462,0.06744 0.83264,-0.09949 1.23059,0 0.17797,0.04449 0.31427,0.201626 0.49224,0.246118 0.15918,0.0398 0.33306,-0.03979 0.49224,0 0.17797,0.04449 0.31427,0.201629 0.49224,0.246121 0.15918,0.03979 0.32815,0 0.49223,0 0.57428,0 1.14856,0 1.72283,0 1.47672,0 2.95343,0 4.43014,0 0.49224,0 0.98448,0 1.47671,0 0.082,0 0.16408,0 0.24612,0 0.082,0 0.17274,-0.03669 0.24612,0 0.20755,0.103772 0.26712,0.435957 0.49224,0.492236 0.23877,0.05969 0.49701,-0.04827 0.73835,0 0.17989,0.03598 0.31427,0.201626 0.49224,0.246118 0.15918,0.0398 0.32816,0 0.49224,0 0.16408,0 0.32816,0 0.49223,0 0.082,0 0.1683,-0.02595 0.24613,0 0.17403,0.05801 0.3182,0.188108 0.49223,0.246121 0.15448,0.05149 0.78634,0 0.98448,0"
         style="fill:none;stroke:#502d16;stroke-width:0.26458332px;stroke-linecap:butt;stroke-linejoin:miter;stroke-opacity:1" />
      <path
         clip-path="url(#clipPath330)"
         inkscape:connector-curvature="0"
         id="path22"
         d="m 135.36528,25.038834 c 2.78935,0 5.57869,0 8.36804,0 0.57428,0 1.14855,0 1.72283,0 0.24612,0 0.49471,-0.03481 0.73836,0 0.33485,0.04784 0.64883,0.204164 0.98447,0.246119 0.32563,0.0407 0.65632,0 0.98448,0 0.32816,0 0.65631,0 0.98447,0 1.72283,0 3.44566,0 5.16849,0 0.8204,0 1.6408,0 2.46119,0 0.49224,0 0.98617,0.04088 1.47671,0 4.68946,-0.390788 -0.95896,-0.06472 2.46119,-0.492237 0.32562,-0.0407 0.65632,0 0.98448,0 1.06651,0 2.13302,0 3.19954,0 0.49223,0 0.98447,0 1.47671,0 0.082,0 0.16408,0 0.24612,0 0.082,0 0.17274,-0.03669 0.24612,0 0.10377,0.05189 0.13605,0.209429 0.24612,0.246118 0.11257,0.03752 0.87495,-0.05476 0.98447,0 0.10377,0.05189 0.14235,0.194233 0.24612,0.246119 0.0734,0.03669 0.17274,-0.03669 0.24612,0 0.10377,0.05189 0.13605,0.20943 0.24612,0.246119 0.16743,0.05581 1.10009,-0.06525 1.23059,0 0.10377,0.05189 0.13605,0.209429 0.24612,0.246118 0.13611,0.04537 1.22886,0 1.47671,0"
         style="fill:none;stroke:#502d16;stroke-width:0.26458332px;stroke-linecap:butt;stroke-linejoin:miter;stroke-opacity:1" />
      <path
         clip-path="url(#clipPath326)"
         inkscape:connector-curvature="0"
         id="path24"
         d="m 127.7356,35.868057 c 1.39468,0 2.78935,0 4.18402,0 0.29619,0 0.70726,-0.05544 0.98448,0 2.0236,0.674536 -0.51887,-0.08648 1.47671,0.246118 0.2559,0.04265 0.48245,0.20347 0.73836,0.24612 0.40461,0.06743 0.82836,-0.08045 1.23059,0 0.25439,0.05088 0.48245,0.203468 0.73836,0.246118 0.24276,0.04046 0.49223,0 0.73835,0 0.4102,0 0.8204,0 1.23059,0 1.31264,0 2.62527,0 3.9379,0 0.57428,0 1.14856,0 1.72283,0 0.16408,0 0.33306,0.0398 0.49224,0 0.17797,-0.04449 0.31235,-0.210142 0.49224,-0.246118 0.56313,-0.112625 1.15637,0.09441 1.72283,0 0.18095,-0.03016 0.32816,-0.164078 0.49224,-0.24612"
         style="fill:none;stroke:#502d16;stroke-width:0.26458332px;stroke-linecap:butt;stroke-linejoin:miter;stroke-opacity:1" />
      <path
         clip-path="url(#clipPath322)"
         inkscape:connector-curvature="0"
         id="path26"
         d="m 156.28537,36.360295 c 0.57428,0 1.15141,-0.05714 1.72283,0 0.51629,0.05163 0.96491,0.406937 1.47672,0.492236 0.24277,0.04046 0.49558,-0.04046 0.73835,0 0.2559,0.04265 0.48246,0.20347 0.73836,0.246119 0.38509,0.06418 1.04406,0 1.47671,0 0.16408,0 0.33658,-0.05188 0.49224,0 0.95849,0.319497 0.023,0.24612 0.98447,0.24612 0.35594,0 1.46294,-0.05198 1.72284,0 0.17988,0.03598 0.3182,0.188108 0.49223,0.246118 0.15566,0.05189 0.32816,0 0.49224,0 0.49224,0 0.98447,0 1.47671,0 0.16408,0 0.33306,-0.0398 0.49224,0 0.17797,0.04449 0.31427,0.201626 0.49224,0.246118 0.16656,0.04164 1.56445,0 1.72283,0 0.16408,0 0.33657,-0.05188 0.49223,0 0.11007,0.03669 0.14235,0.194234 0.24612,0.246118 0.0727,0.03632 1.46928,0 1.72283,0 1.47671,0 2.95343,0 4.43014,0"
         style="fill:none;stroke:#502d16;stroke-width:0.26458332px;stroke-linecap:butt;stroke-linejoin:miter;stroke-opacity:1" />
      <path
         clip-path="url(#clipPath318)"
         inkscape:connector-curvature="0"
         id="path28"
         d="m 169.57578,31.684039 c 0.90244,0 1.80487,0 2.70731,0 0.16173,0 0.59949,-0.04629 0.73836,0 0.17403,0.05801 0.3182,0.188108 0.49223,0.246118 0.23446,0.07815 0.99086,-0.07991 1.23059,0 0.17404,0.05801 0.31427,0.201628 0.49224,0.246121 0.15918,0.03979 0.32816,0 0.49224,0 0.4102,0 0.8204,0 1.2306,0 1.23059,0 2.46118,0 3.69177,0"
         style="fill:none;stroke:#502d16;stroke-width:0.26458332px;stroke-linecap:butt;stroke-linejoin:miter;stroke-opacity:1" />
      <path
         clip-path="url(#clipPath314)"
         inkscape:connector-curvature="0"
         id="path30"
         d="m 180.15889,26.269428 c 0.73835,0 1.47671,0 2.21507,0 0.082,0 0.16407,0 0.24611,0 0.082,0 0.18811,0.05801 0.24612,0 0.058,-0.05801 -0.058,-0.188108 0,-0.246119 0.12306,-0.123059 0.6153,0.12306 0.73836,0 0.058,-0.05801 -0.058,-0.188108 0,-0.246119 0.008,-0.0079 0.67867,0 0.73836,0"
         style="fill:none;stroke:#502d16;stroke-width:0.26458332px;stroke-linecap:butt;stroke-linejoin:miter;stroke-opacity:1" />
      <path
         clip-path="url(#clipPath310)"
         inkscape:connector-curvature="0"
         id="path32"
         d="m 120.84428,20.854817 c -1.96895,0 -3.9379,0 -5.90685,0 -0.4102,0 -0.82039,0 -1.23059,0 -0.24612,0 -0.49559,0.04046 -0.73836,0 -0.2559,-0.04265 -0.48245,-0.203469 -0.73835,-0.246119 -0.48554,-0.08092 -0.99118,0.08092 -1.47671,0 -0.25591,-0.04265 -0.48246,-0.203469 -0.73836,-0.246119 -0.48554,-0.08092 -0.99117,0.08092 -1.47671,0 -0.25591,-0.04265 -0.48397,-0.19524 -0.73836,-0.246118 -0.16089,-0.03218 -0.32816,0 -0.49224,0 -0.24612,0 -0.49223,0 -0.73835,0 -0.65632,0 -1.31264,0 -1.96895,0 -2.54323,0 -5.086455,0 -7.629683,0 -1.476711,0 -2.953425,0 -4.430136,0 -0.492239,0 -0.984475,0 -1.476714,0 -0.08204,0 -0.164078,0 -0.246118,0 -0.08204,0 -0.172741,-0.03669 -0.246118,0 -0.103772,0.05189 -0.164078,0.164079 -0.246118,0.246118 -0.164081,0 -0.336579,-0.05189 -0.492238,0 -0.110067,0.03669 -0.136052,0.20943 -0.246119,0.246119 -0.249441,0.08315 -1.162999,-0.06274 -1.476713,0 -1.280359,0.256072 -0.246118,0.164079 -1.230593,0.492237 -0.261528,0.08718 -0.722945,-0.08718 -0.984475,0 -0.110067,0.03669 -0.142346,0.194233 -0.246118,0.246119 -0.154691,0.07735 -0.829784,-0.07735 -0.984475,0 -0.103772,0.05189 -0.142346,0.194232 -0.246118,0.246119 -0.0749,0.03745 -0.627515,0 -0.738357,0 -0.492236,0 -0.984475,0 -1.476711,0"
         style="fill:none;stroke:#502d16;stroke-width:0.26458332px;stroke-linecap:butt;stroke-linejoin:miter;stroke-opacity:1" />
      <path
         clip-path="url(#clipPath306)"
         inkscape:connector-curvature="0"
         id="path34"
         d="m 64.975337,21.593173 c -2.80674,0.935579 -0.31356,0.277474 -2.461189,0.492237 -0.496548,0.04966 -0.979154,0.207845 -1.476711,0.246119 -0.572584,0.04405 -1.148553,0 -1.722831,0 -1.066514,0 -2.133029,0 -3.199543,0 -0.574275,0 -1.148554,0 -1.722832,0 -0.492236,0 -0.986496,0.04456 -1.476711,0 -0.416602,-0.03787 -0.814347,-0.204494 -1.230593,-0.246119 -0.408162,-0.04082 -0.820396,0 -1.230593,0 -1.148556,0 -2.297109,0 -3.445663,0 -3.035464,0 -6.070928,0 -9.106392,0"
         style="fill:none;stroke:#502d16;stroke-width:0.26458332px;stroke-linecap:butt;stroke-linejoin:miter;stroke-opacity:1" />
      <path
         clip-path="url(#clipPath302)"
         inkscape:connector-curvature="0"
         id="path36"
         d="m 60.545199,34.391346 c -0.743845,-0.170437 -1.697101,0.127346 -2.461186,0 -0.255903,-0.04265 -0.482455,-0.20347 -0.738357,-0.246118 -0.646105,-0.107686 -0.830606,0.107682 -1.476711,0 -0.255902,-0.04265 -0.481531,-0.209431 -0.738357,-0.246121 -0.324861,-0.04641 -0.657283,0.02516 -0.984475,0 -0.740711,-0.05698 -1.474356,-0.18914 -2.215068,-0.246118 -0.654383,-0.05034 -1.317701,0.08141 -1.968949,0 -0.335645,-0.04196 -0.64883,-0.204163 -0.984475,-0.246118 -0.569841,-0.07123 -1.148554,0 -1.722832,0 -1.230593,0 -2.461186,0 -3.691779,0"
         style="fill:none;stroke:#502d16;stroke-width:0.26458332px;stroke-linecap:butt;stroke-linejoin:miter;stroke-opacity:1" />
      <path
         clip-path="url(#clipPath298)"
         inkscape:connector-curvature="0"
         id="path38"
         d="m 43.56301,33.406871 c -1.968949,0.492236 -3.937899,0.984475 -5.906849,1.476711 -0.164079,0 -0.331346,-0.03218 -0.492239,0 -0.254391,0.05088 -0.48051,0.217469 -0.738354,0.24612 -0.489228,0.05436 -0.984475,0 -1.476714,0 -0.246118,0 -0.497017,-0.04827 -0.738354,0 -0.179885,0.03598 -0.312354,0.21014 -0.492239,0.246118 -0.241339,0.04827 -0.492236,0 -0.738356,0 -0.492236,0 -0.984475,0 -1.476711,0 -1.558753,0 -3.117504,0 -4.676257,0 -0.902434,0 -1.804869,0 -2.707304,0 -0.171186,0 -1.141589,0.0445 -1.230594,0 -0.608259,-0.30413 0.08496,-0.246118 -0.492237,-0.246118"
         style="fill:none;stroke:#502d16;stroke-width:0.26458332px;stroke-linecap:butt;stroke-linejoin:miter;stroke-opacity:1" />
      <path
         clip-path="url(#clipPath294)"
         inkscape:connector-curvature="0"
         id="path40"
         d="m 23.873514,22.823766 c -0.328159,-0.08204 -0.652786,-0.179781 -0.984475,-0.246119 -0.08045,-0.01609 -0.164079,0 -0.246119,0 -0.328158,0 -0.656316,0 -0.984474,0 -0.738357,0 -1.476713,0 -2.215069,0 -0.08204,0 -0.164079,0 -0.246119,0 -0.08204,0 -0.17274,0.03669 -0.246118,0 -0.103773,-0.05189 -0.142346,-0.194232 -0.246119,-0.246118 -0.07338,-0.03669 -0.233149,0.08101 -0.246119,0 -0.20025,-1.250772 -0.239701,-2.522036 -0.359552,-3.783054"
         style="fill:none;stroke:#502d16;stroke-width:0.26458332px;stroke-linecap:butt;stroke-linejoin:miter;stroke-opacity:1" />
      <path
         clip-path="url(#clipPath290)"
         inkscape:connector-curvature="0"
         id="path42"
         d="m 18.212784,52.111891 c 3.117503,0 6.235007,0 9.35251,0 0.574278,0 1.148554,0 1.722832,0 0.164079,0 0.328157,0 0.492236,0 0.08204,0 0.172741,-0.03669 0.246118,0 0.103775,0.05189 0.142348,0.194233 0.246121,0.246118 0.0749,0.03745 0.627515,0 0.738354,0 0.656317,0 1.312635,0 1.96895,0 0.410199,0 0.820396,0 1.230595,0 0.08204,0 0.164079,0 0.246118,0 0.08204,0 0.172739,0.03669 0.246118,0 0.103773,-0.05189 0.164079,-0.164079 0.246118,-0.246118"
         style="fill:none;stroke:#502d16;stroke-width:0.26458332px;stroke-linecap:butt;stroke-linejoin:miter;stroke-opacity:1" />
      <path
         clip-path="url(#clipPath286)"
         inkscape:connector-curvature="0"
         id="path44"
         d="m 53.161638,54.326959 c 0.23812,0.217754 1.748902,-0.116541 2.215068,0 0.17797,0.04449 0.312354,0.210142 0.492239,0.24612 0.24134,0.04827 0.492236,0 0.738357,0 0.328157,0 0.656315,0 0.984475,0 2.050989,0 4.101978,0 6.152967,0 0.492236,0 0.984475,0 1.476711,0 0.328157,0 0.656318,0 0.984475,0 0.164079,0 0.336579,-0.05189 0.492236,0 0.174032,0.05801 0.318207,0.188109 0.492239,0.246118 0.07783,0.02596 0.164079,0 0.246118,0 0.32816,0 0.660781,-0.05395 0.984475,0 0.333655,0.05561 0.654272,0.172739 0.984475,0.246118 0.40836,0.09075 0.824761,0.144661 1.230593,0.246119 0.251687,0.06292 0.482454,0.203469 0.738356,0.24612 0.242772,0.04046 0.49471,-0.03481 0.738357,0 0.334857,0.04784 0.65082,0.190508 0.984475,0.246118 0.161846,0.02698 0.331343,-0.03218 0.492236,0 0.254394,0.05088 0.483963,0.195239 0.738357,0.246118 0.160893,0.03218 0.328157,0 0.492236,0 0.08204,0 0.172741,-0.03669 0.246121,0 0.103772,0.05189 0.133562,0.21798 0.246118,0.246118 0.397949,0.09949 0.832644,-0.09949 1.230593,0 0.177969,0.04449 0.314269,0.201629 0.492239,0.246121 0.193601,0.0484 1.220766,0 1.476711,0 1.148553,0 2.297107,0 3.44566,0"
         style="fill:none;stroke:#502d16;stroke-width:0.26458332px;stroke-linecap:butt;stroke-linejoin:miter;stroke-opacity:1" />
      <path
         clip-path="url(#clipPath282)"
         inkscape:connector-curvature="0"
         id="path46"
         d="m 77.035154,52.850248 c 0.574275,0 1.150535,0.04769 1.722829,0 0.0021,-1.8e-4 2.447345,-0.48972 2.461188,-0.492239 2.996713,-0.544857 -0.119081,0.06087 3.199543,-0.492236 0.412628,-0.06877 0.81902,-0.171286 1.230593,-0.246118 0.981956,-0.178538 1.971469,-0.313701 2.953425,-0.492239 0.411572,-0.07483 0.81902,-0.171286 1.230593,-0.246118 2.996715,-0.544857 -0.119082,0.06087 3.199542,-0.492239 0.825259,-0.137541 1.628698,-0.408988 2.461189,-0.492236 0.408162,-0.04082 0.820396,0 1.230593,0 0.820396,0 1.640792,0 2.461186,0 3.609745,0 7.219485,0 10.829225,0 1.06651,0 2.13303,0 3.19954,0 0.49224,0 0.9865,0.04456 1.47671,0 0.41661,-0.03787 0.81399,-0.208246 1.2306,-0.246118 0.49021,-0.04457 0.98447,0 1.47671,0 0.65632,0 1.31263,0 1.96895,0 0.24612,0 0.49702,0.04827 0.73836,0 0.17988,-0.03598 0.31426,-0.201628 0.49223,-0.246118 0.31836,-0.07959 0.67316,0.103772 0.98448,0 0.11007,-0.03669 0.14234,-0.194233 0.24612,-0.246121 0.0914,-0.04572 1.51286,0 1.72283,0 1.39467,0 2.78934,0 4.18401,0"
         style="fill:none;stroke:#502d16;stroke-width:0.26458332px;stroke-linecap:butt;stroke-linejoin:miter;stroke-opacity:1" />
      <path
         clip-path="url(#clipPath278)"
         inkscape:connector-curvature="0"
         id="path48"
         d="m 111.98401,57.772622 c 13.37245,0 26.7449,0 40.11734,0"
         style="fill:none;stroke:#502d16;stroke-width:0.26458332px;stroke-linecap:butt;stroke-linejoin:miter;stroke-opacity:1" />
      <path
         clip-path="url(#clipPath274)"
         inkscape:connector-curvature="0"
         id="path50"
         d="m 105.09268,42.759381 c 3.52771,0 7.05541,0 10.58311,0 0.82039,0 1.64079,0 2.46119,0 0.32815,0 0.65961,0.04641 0.98447,0 0.25682,-0.03669 0.48245,-0.203467 0.73836,-0.246118 0.40461,-0.06744 0.82039,0 1.23059,0 0.73836,0 1.47671,0 2.21507,0"
         style="fill:none;stroke:#502d16;stroke-width:0.26458332px;stroke-linecap:butt;stroke-linejoin:miter;stroke-opacity:1" />
      <path
         clip-path="url(#clipPath270)"
         inkscape:connector-curvature="0"
         id="path52"
         d="m 136.34976,44.482212 c 6.15297,0 12.30593,0 18.4589,0 1.06652,0 2.13303,0 3.19954,0 0.4102,0 0.8204,0 1.2306,0 0.16408,0 0.33305,0.03979 0.49224,0 0.17797,-0.04449 0.3182,-0.188108 0.49223,-0.24612 0.15566,-0.05188 0.32816,0 0.49224,0 0.4102,0 0.8204,0 1.23059,0 1.14856,0 2.29711,0 3.44566,0"
         style="fill:none;stroke:#502d16;stroke-width:0.26458332px;stroke-linecap:butt;stroke-linejoin:miter;stroke-opacity:1" />
      <path
         clip-path="url(#clipPath266)"
         inkscape:connector-curvature="0"
         id="path54"
         d="m 137.82647,51.373534 c 1.13123,0.565618 0.61758,0.492239 1.47671,0.492239 0.16408,0 0.33135,-0.03218 0.49224,0 0.25439,0.05088 0.48093,0.213939 0.73836,0.246118 0.40703,0.05088 0.82039,0 1.23059,0 0.98447,0 1.96895,0 2.95342,0 1.6408,0 3.28159,0 4.92238,0 0.0597,0 0.73044,0.0079 0.73836,0 0.058,-0.05801 -0.0734,-0.209428 0,-0.246118 0.14675,-0.07338 0.32815,0 0.49223,0 0.49224,0 0.98448,0 1.47672,0 1.14855,0 2.2971,0 3.44566,0 0.25594,0 1.28311,-0.0484 1.47671,0 0.17797,0.04449 0.31235,0.210142 0.49224,0.246118 0.24134,0.04827 0.49223,0 0.73835,0 0.65632,0 1.31264,0 1.96895,0 1.64079,0 3.28158,0 4.92237,0 1.2306,0 2.46119,0 3.69179,0 0.17445,0 1.41307,-0.03182 1.47671,0 0.10377,0.05189 0.14234,0.194233 0.24612,0.246118 0.0734,0.03669 0.16408,0 0.24612,0 0.082,0 0.16407,0 0.24611,0 0.49224,0 0.98448,0 1.47672,0 0.24612,0 0.50486,-0.07783 0.73835,0 0.11007,0.03669 0.14235,0.194233 0.24612,0.246121 0.089,0.0445 1.05941,0 1.2306,0"
         style="fill:none;stroke:#502d16;stroke-width:0.26458332px;stroke-linecap:butt;stroke-linejoin:miter;stroke-opacity:1" />
      <path
         clip-path="url(#clipPath262)"
         inkscape:connector-curvature="0"
         id="path56"
         d="m 174.9904,52.60413 c -0.32816,-1.148554 -0.81555,-2.263154 -0.98448,-3.445664 -0.0717,-0.502163 0.58624,0.146561 0.98448,0.246121 0.24146,0.06036 1.33456,-0.07108 1.47671,0 0.10377,0.05188 0.14234,0.194231 0.24611,0.246118 0.0749,0.03745 0.62752,0 0.73836,0 0.16408,0 0.33658,-0.05189 0.49224,0 0.17403,0.05801 0.3182,0.188108 0.49224,0.246118 0.0778,0.02596 0.16407,0 0.24611,0 0.13738,0 1.11793,-0.03755 1.2306,0 0.11007,0.03669 0.14235,0.194233 0.24612,0.246118 0.1305,0.06525 1.06316,-0.05581 1.23059,0 0.11007,0.03669 0.14235,0.194233 0.24612,0.246118 0.0552,0.02758 0.92599,0 0.98447,0"
         style="fill:none;stroke:#502d16;stroke-width:0.26458332px;stroke-linecap:butt;stroke-linejoin:miter;stroke-opacity:1" />
      <path
         clip-path="url(#clipPath258)"
         inkscape:connector-curvature="0"
         id="path58"
         d="m 24.365751,63.679471 c 7.301521,0 14.603042,0 21.904563,0 1.476714,0 2.953425,0 4.430139,0 0.410196,0 0.820396,0 1.230592,0 0.08204,0 0.164079,0 0.246119,0 0.08204,0 0.172741,-0.03669 0.246118,0 0.703722,0.351862 -0.211485,0.140375 0.492238,0.492236 0.154692,0.07735 0.829784,-0.07734 0.984475,0 0.103772,0.05189 0.133562,0.21798 0.246118,0.246119 0.238771,0.05969 0.492239,0 0.738357,0 0.246118,0 0.492236,0 0.738357,0 1.148554,0 2.297107,0 3.445661,0"
         style="fill:none;stroke:#502d16;stroke-width:0.26458332px;stroke-linecap:butt;stroke-linejoin:miter;stroke-opacity:1" />
      <path
         clip-path="url(#clipPath254)"
         inkscape:connector-curvature="0"
         id="path60"
         d="m 71.128304,62.448876 c -0.21822,0.837419 1.466649,0.364148 1.722829,0.492239 0.103775,0.05188 0.133562,0.217979 0.246121,0.246118 0.820396,0.205099 0.546931,-0.136732 1.230593,0 0.254394,0.05088 0.482455,0.203467 0.738357,0.246118 0.485539,0.08092 0.991171,-0.08092 1.476711,0 0.255902,0.04265 0.480928,0.213942 0.738357,0.24612 0.407029,0.05088 0.820396,0 1.230593,0 0.492238,0 0.984475,0 1.476711,0 0.656317,0 1.312635,0 1.968949,0 0.328161,0 0.659617,-0.04641 0.984475,0 0.256826,0.03669 0.482455,0.203468 0.738357,0.246118 0.365988,0.061 1.059929,0 1.476714,0 0.984475,0 1.96895,0 2.953422,0 2.625267,0 5.250534,0 7.875799,0"
         style="fill:none;stroke:#502d16;stroke-width:0.26458332px;stroke-linecap:butt;stroke-linejoin:miter;stroke-opacity:1" />
      <path
         clip-path="url(#clipPath250)"
         inkscape:connector-curvature="0"
         id="path62"
         d="m 93.278988,57.772622 c -0.0254,0.366287 1.884479,0.203883 1.968947,0.246118 0.103775,0.05189 0.142349,0.194233 0.246121,0.246118 0.09084,0.04542 1.262324,0 1.476711,0 1.148553,0 2.297107,0 3.445663,0"
         style="fill:none;stroke:#502d16;stroke-width:0.26458332px;stroke-linecap:butt;stroke-linejoin:miter;stroke-opacity:1" />
      <path
         clip-path="url(#clipPath246)"
         inkscape:connector-curvature="0"
         id="path64"
         d="m 119.12145,69.3402 c 0.49955,-0.587293 2.8043,-0.0982 3.69178,-0.246118 0.2559,-0.04265 0.48396,-0.195241 0.73836,-0.246118 0.16089,-0.03218 0.32816,0 0.49223,0 0.37328,0 1.63851,0.05507 1.96895,0 0.25591,-0.04265 0.48246,-0.20347 0.73836,-0.246121 0.24277,-0.04046 0.49224,0 0.73836,0 0.32815,0 0.65631,0 0.98447,0 0.24612,0 0.49414,-0.03053 0.73836,0 0.41509,0.05189 0.81902,0.171289 1.23059,0.246121 0.98196,0.178535 1.98093,0.267814 2.95342,0.492236 0.58197,0.1343 1.14087,0.357939 1.72284,0.492239 0.48624,0.11221 0.99046,0.133905 1.47671,0.246118 1.16392,0.268597 2.28681,0.694761 3.44566,0.984475 1.05586,0.263964 1.61015,0.272806 2.7073,0.492236 0.33169,0.06634 0.64883,0.204163 0.98448,0.246118 0.32563,0.0407 0.65632,0 0.98447,0 1.2306,0 2.46119,0 3.69179,0 0.24611,0 0.49223,0 0.73835,0 0.24612,0 0.49471,-0.03481 0.73836,0 0.33486,0.04784 0.64962,0.198284 0.98447,0.246121 0.42627,0.06089 1.0245,0 1.47672,0 0.16407,0 0.33134,-0.03218 0.49223,0 0.2544,0.05088 0.48667,0.183197 0.73836,0.246118 0.20971,0.05243 0.52136,0 0.73835,0 0.57428,0 1.14856,0 1.72283,0 1.47672,0 2.95343,0 4.43014,0 3.85586,0 7.71172,0 11.56758,0"
         style="fill:none;stroke:#502d16;stroke-width:0.26458332px;stroke-linecap:butt;stroke-linejoin:miter;stroke-opacity:1" />
      <path
         clip-path="url(#clipPath242)"
         inkscape:connector-curvature="0"
         id="path66"
         d="m 150.87076,64.171707 c 3.36362,0 6.72725,0 10.09087,0 0.90243,0 1.80487,0 2.70731,0 0.32815,0 0.65794,-0.03265 0.98447,0 0.49224,0.08204 0.98448,0.164079 1.47671,0.246119 0.24612,0.08204 0.48246,0.203469 0.73836,0.246118 0.24277,0.04046 0.49223,0 0.73835,0 0.49224,0 0.98448,0 1.47672,0 0.16407,0 0.33134,-0.03218 0.49223,0 0.2544,0.05088 0.48396,0.195241 0.73836,0.24612 0.16089,0.03218 0.32816,0 0.49224,0 0.41019,0 0.82039,0 1.23059,0 0.16408,0 0.33306,-0.0398 0.49224,0 0.17797,0.04449 0.31128,0.215961 0.49224,0.246118 0.32369,0.05395 0.65631,0 0.98447,0 0.98448,0 1.96895,0 2.95343,0 2.54322,0 5.08645,0 7.62967,0"
         style="fill:none;stroke:#502d16;stroke-width:0.26458332px;stroke-linecap:butt;stroke-linejoin:miter;stroke-opacity:1" />
      <path
         clip-path="url(#clipPath238)"
         inkscape:connector-curvature="0"
         id="path68"
         d="m 127.24337,65.156182 c -0.50484,-0.637005 -1.16005,-0.105423 -1.72283,-0.246118 -0.17797,-0.04449 -0.31129,-0.215961 -0.49224,-0.24612 -0.48554,-0.08092 -0.98448,0 -1.47671,0 -1.06652,0 -2.13303,0 -3.19955,0 -0.65631,0 -1.31263,0 -1.96895,0 -0.16172,0 -0.59949,0.04629 -0.73835,0 -0.44701,-0.149001 -0.45676,-0.21064 -0.73836,-0.492237"
         style="fill:none;stroke:#502d16;stroke-width:0.26458332px;stroke-linecap:butt;stroke-linejoin:miter;stroke-opacity:1" />
      <path
         clip-path="url(#clipPath234)"
         inkscape:connector-curvature="0"
         id="path70"
         d="m 19.197258,75.493167 c 0.820396,0 1.640792,0 2.461188,0 0.328158,0 0.658323,0.03624 0.984474,0 0.415763,-0.0462 0.817964,-0.177347 1.230594,-0.246118 0.572214,-0.09537 1.147203,-0.174164 1.722831,-0.246118 2.799098,-0.349887 4.09699,-0.412078 7.38356,-0.492239 2.460455,-0.06001 4.922374,0 7.383563,0 1.066514,0 2.133028,0 3.199542,0 0.328158,0 0.658323,-0.03624 0.984475,0 0.415761,0.0462 0.815502,0.194234 1.230593,0.246118 0.488437,0.06106 0.984475,0 1.476711,0 1.066514,0 2.133029,0 3.199545,0 2.789344,0 5.57869,0 8.368036,0 3.117503,0 6.235006,0 9.35251,0 0.984475,0 1.968949,0 2.953424,0 0.201496,0 1.071129,-0.05315 1.230593,0 0.348065,0.116023 0.624708,0.420286 0.984475,0.492239 0.24134,0.04827 0.495586,-0.04046 0.738357,0 0.255902,0.04265 0.480928,0.21394 0.738354,0.246118 0.732655,0.09158 1.484135,-0.104417 2.215071,0 0.256823,0.03669 0.48396,0.195242 0.738354,0.246118 0.244237,0.04885 0.97201,0 1.230595,0"
         style="fill:none;stroke:#502d16;stroke-width:0.26458332px;stroke-linecap:butt;stroke-linejoin:miter;stroke-opacity:1" />
      <path
         clip-path="url(#clipPath230)"
         inkscape:connector-curvature="0"
         id="path72"
         d="m 55.130588,70.078557 c 1.041048,0.0033 1.937383,0.625462 2.953425,0.738357 0.407688,0.0453 0.820396,0 1.230593,0 0.820396,0 1.640792,0 2.461188,0 2.953425,0 5.906847,0 8.860272,0 8.203956,0 16.407913,0 24.611869,0"
         style="fill:none;stroke:#502d16;stroke-width:0.26458332px;stroke-linecap:butt;stroke-linejoin:miter;stroke-opacity:1" />
      <path
         clip-path="url(#clipPath226)"
         inkscape:connector-curvature="0"
         id="path74"
         d="m 104.35433,72.293625 c 2.21507,0 4.43014,0 6.6452,0"
         style="fill:none;stroke:#502d16;stroke-width:0.26458332px;stroke-linecap:butt;stroke-linejoin:miter;stroke-opacity:1" />
      <path
         clip-path="url(#clipPath222)"
         inkscape:connector-curvature="0"
         id="path76"
         d="m 97.955242,81.153899 c 0.328157,0.164078 0.63641,0.376216 0.984475,0.492236 0.155659,0.05189 0.328157,0 0.492238,0 0.164079,0 0.328158,0 0.492236,0 0.492239,0 0.984479,0 1.476719,0 0.32815,0 0.65794,0.03265 0.98447,0 0.49655,-0.04966 0.98573,-0.156851 1.47671,-0.246118 0.41157,-0.07483 0.81372,-0.211379 1.23059,-0.246118 0.5723,-0.04769 1.1536,0.0759 1.72284,0 0.67058,-0.08941 1.29836,-0.402829 1.96895,-0.492239 0.56923,-0.0759 1.15001,0.04091 1.72282,0 0.57864,-0.04133 1.14473,-0.197943 1.72284,-0.246118 0.40878,-0.03406 0.82039,0 1.23059,0 1.47671,0 2.95342,0 4.43014,0 1.06651,0 2.13303,0 3.19954,0 0.24612,0 0.49471,-0.03481 0.73836,0 0.62596,-0.0412 1.13157,0.407773 1.72283,0.492236 0.32486,0.04641 0.65885,-0.0407 0.98447,0 0.33565,0.04196 0.64829,0.208767 0.98448,0.246121 0.40768,0.0453 0.82039,0 1.23059,0 1.14855,0 2.29711,0 3.44566,0 0.57428,0 1.14856,0 1.72283,0 0.16408,0 0.32816,0 0.49224,0 0.082,0 0.17274,0.03669 0.24612,0 0.10377,-0.05189 0.13605,-0.209431 0.24612,-0.246121 0.15566,-0.05188 0.32816,0 0.49223,0 0.4102,0 0.8204,0 1.2306,0 0.53232,0 1.75296,-0.05776 2.21507,0 0.33564,0.04196 0.65427,0.172741 0.98447,0.246121 2.81211,0.624911 -0.18586,-0.107995 2.21507,0.492236 0.32816,0.08204 0.64829,0.208764 0.98447,0.246118 0.40769,0.0453 0.8204,0 1.2306,0 0.49223,0 0.98447,0 1.47671,0 0.57428,0 1.14855,0 1.72283,0 0.24612,0 0.49471,0.03481 0.73836,0 0.33485,-0.04784 0.65427,-0.172739 0.98447,-0.246118 0.81672,-0.181494 1.64079,-0.328158 2.46119,-0.492236"
         style="fill:none;stroke:#502d16;stroke-width:0.26458332px;stroke-linecap:butt;stroke-linejoin:miter;stroke-opacity:1" />
      <path
         clip-path="url(#clipPath218)"
         inkscape:connector-curvature="0"
         id="path78"
         d="m 178.18994,82.138373 c -0.32816,0 -0.66269,0.06436 -0.98448,0 -0.11377,-0.02275 -0.13605,-0.20943 -0.24611,-0.24612 -0.15566,-0.05188 -0.32816,0 -0.49224,0 -0.24612,0 -0.49224,0 -0.73836,0 -0.24612,0 -0.49701,0.04827 -0.73835,0 -0.17989,-0.03598 -0.31427,-0.201626 -0.49224,-0.246118 -0.15918,-0.03979 -0.32816,0 -0.49224,0 -0.24612,0 -0.49224,0 -0.73836,0 -0.65631,0 -1.31263,0 -1.96895,0 -0.24611,0 -0.49471,0.03481 -0.73835,0 -0.33486,-0.04784 -0.65082,-0.190508 -0.98448,-0.246118 -0.32369,-0.05395 -0.65631,0 -0.98447,0 -0.49224,0 -0.98448,0 -1.47671,0 -0.49224,0 -0.98448,0 -1.47671,0 -0.16409,0 -0.33306,0.0398 -0.49224,0 -0.17797,-0.04449 -0.31427,-0.201626 -0.49224,-0.246118 -0.39795,-0.09949 -0.82836,0.08045 -1.2306,0 -0.17988,-0.03598 -0.31426,-0.201629 -0.49223,-0.246121 -0.15918,-0.03979 -0.32816,0 -0.49224,0 -0.16408,0 -0.32816,0 -0.49224,0 -0.32815,0 -0.65631,0 -0.98447,0 -0.16408,0 -0.33135,0.03218 -0.49224,0 -0.25439,-0.05088 -0.49224,-0.164079 -0.73835,-0.246118"
         style="fill:none;stroke:#502d16;stroke-width:0.26458332px;stroke-linecap:butt;stroke-linejoin:miter;stroke-opacity:1" />
      <path
         clip-path="url(#clipPath214)"
         inkscape:connector-curvature="0"
         id="path80"
         d="m 30.764837,84.599559 c 0.814289,0.122449 1.644864,-0.08163 2.461188,0 0.496549,0.04966 0.979154,0.207846 1.476711,0.246118 0.572585,0.04405 1.148554,0 1.722832,0 1.148554,0 2.297107,0 3.445661,0 1.394671,0 2.789346,0 4.184017,0 0.656318,0 1.313768,0.03854 1.96895,0 0.741619,-0.04362 1.477256,-0.159316 2.215068,-0.246118 1.808035,-0.212709 3.615214,-0.461526 5.414613,-0.738356 0.493223,-0.07588 0.979734,-0.200938 1.476711,-0.246119 0.735325,-0.06685 1.481228,0.08154 2.215068,0 4.600424,-0.511159 -1.098373,0.019 1.96895,-0.492236 0.485539,-0.08093 0.994034,0.09654 1.476713,0 0.179883,-0.03598 0.314267,-0.201628 0.492237,-0.24612 0.23877,-0.05969 0.492238,0 0.738356,0 0.574276,0 1.148554,0 1.722832,0"
         style="fill:none;stroke:#502d16;stroke-width:0.26458332px;stroke-linecap:butt;stroke-linejoin:miter;stroke-opacity:1" />
      <path
         clip-path="url(#clipPath210)"
         inkscape:connector-curvature="0"
         id="path82"
         d="m 77.52739,84.845677 c 3.85586,0 7.71172,0 11.567578,0"
         style="fill:none;stroke:#502d16;stroke-width:0.26458332px;stroke-linecap:butt;stroke-linejoin:miter;stroke-opacity:1" />
      <path
         clip-path="url(#clipPath206)"
         inkscape:connector-curvature="0"
         id="path84"
         d="m 22.64292,94.690426 c 0.328158,0.08204 0.656317,0.164079 0.984475,0.246118 0.246119,0 0.495586,-0.04046 0.738356,0 0.255902,0.04265 0.482454,0.20347 0.738356,0.246118 0.24277,0.04046 0.492238,0 0.738356,0 0.328159,0 0.656317,0 0.984474,0 0.738357,0 1.476714,0 2.215071,0 2.215068,0 4.430135,0 6.645203,0 6.891324,0 13.782649,0 20.67397,0 1.312635,0 2.625267,0 3.9379,0 0.410199,0 0.820396,0 1.230593,0 0.164081,0 0.32816,0 0.492238,0 0.08204,0 0.168289,0.02596 0.246118,0 0.984475,-0.328157 -0.04977,-0.236164 1.230593,-0.492236 0.549066,-0.109812 1.180209,0.135655 1.722832,0 0.112556,-0.02814 0.142346,-0.194233 0.246118,-0.246118 0.724281,-0.36214 -0.324035,0.570153 0.492239,-0.246121"
         style="fill:none;stroke:#502d16;stroke-width:0.26458332px;stroke-linecap:butt;stroke-linejoin:miter;stroke-opacity:1" />
      <path
         clip-path="url(#clipPath202)"
         inkscape:connector-curvature="0"
         id="path88"
         d="m 21.658446,79.923303 c 0.569593,-0.08456 1.152066,0.06342 1.72283,0 0.495975,-0.05511 0.985735,-0.156848 1.476713,-0.246118 0.411573,-0.07483 0.813717,-0.211378 1.230593,-0.246118 0.572292,-0.04769 1.148555,0 1.72283,0 0.656318,0 1.312635,0 1.96895,0 0.574278,0 1.150014,0.04091 1.722832,0 0.578633,-0.04133 1.144727,-0.197943 1.722831,-0.246118 0.757278,-0.06311 1.677914,0 2.461186,0 1.476711,0 2.953425,0 4.430136,0"
         style="fill:none;stroke:#502d16;stroke-width:0.26458332px;stroke-linecap:butt;stroke-linejoin:miter;stroke-opacity:1" />
      <path
         clip-path="url(#clipPath198)"
         inkscape:connector-curvature="0"
         id="path90"
         d="m 74.820083,93.459833 c 3.276314,0 -0.487664,-0.146756 1.476714,0.246118 0.402233,0.08045 0.82836,-0.08045 1.230593,0 0.254394,0.05088 0.482454,0.203468 0.738357,0.246118 0.242768,0.04046 0.492236,0 0.738356,0 0.738355,0 1.476711,0 2.215068,0 1.96895,0 3.9379,0 5.90685,0 1.640789,0 3.281582,0 4.922371,0 0.492239,0 0.984475,0 1.476714,0 0.246118,0 0.49471,-0.03481 0.738357,0 0.334856,0.04784 0.648827,0.204163 0.984472,0.246118 0.325625,0.0407 0.656318,0 0.984475,0 0.32816,0 0.656317,0 0.984475,0 1.066514,0 2.133031,0 3.199545,0"
         style="fill:none;stroke:#502d16;stroke-width:0.26458332px;stroke-linecap:butt;stroke-linejoin:miter;stroke-opacity:1" />
      <path
         clip-path="url(#clipPath194)"
         inkscape:connector-curvature="0"
         id="path106"
         d="m 106.5694,87.552984 c 0.23697,-0.733785 0.8637,0.183446 1.23059,0 0.10377,-0.05189 0.13605,-0.209428 0.24612,-0.246118 0.15566,-0.05189 0.32816,0 0.49224,0 0.082,0 0.17274,0.03669 0.24612,0 1.12638,-0.563195 -1.04439,0.102007 0.73835,-0.492239 0.1332,-0.0444 0.90063,0 0.98447,0 0.65632,0 1.31264,0 1.96895,0 0.4102,0 0.8204,0 1.2306,0 0.082,0 0.18811,-0.05801 0.24612,0 0.058,0.05801 -0.058,0.188108 0,0.246118 0.058,0.05801 0.17274,-0.03669 0.24612,0 0.10377,0.05189 0.14234,0.194233 0.24611,0.246121 0.0734,0.03669 0.16408,0 0.24612,0 0.082,0 0.16408,0 0.24612,0 0.4102,0 0.8204,0 1.2306,0 1.47671,0 2.95342,0 4.43013,0 0.4102,0 0.8204,0 1.2306,0 0.082,0 0.16408,0 0.24611,0 0.082,0 0.17274,-0.03669 0.24612,0 0.10378,0.05188 0.14235,0.194231 0.24612,0.246118 0.15469,0.07735 0.82978,-0.07735 0.98448,0 1.12639,0.563195 -1.04439,-0.10201 0.73835,0.492236 0.10556,0.03518 1.47671,-0.03148 1.47671,0 0,0.08204 -0.16407,0 -0.24611,0"
         style="fill:none;stroke:#502d16;stroke-width:0.26458332px;stroke-linecap:butt;stroke-linejoin:miter;stroke-opacity:1" />
      <path
         clip-path="url(#clipPath190)"
         inkscape:connector-curvature="0"
         id="path108"
         d="m 121.82876,97.151612 c 0.80372,0.484791 1.63255,0.108014 2.46118,0.246121 0.25591,0.04265 0.48153,0.209428 0.73836,0.246118 0.32486,0.04641 0.65631,0 0.98447,0 0.57428,0 1.14856,0 1.72283,0 1.06652,0 2.13303,0 3.19955,0 0.32816,0 0.65885,0.0407 0.98447,0 0.33565,-0.04196 0.6479,-0.212461 0.98448,-0.246118 0.48979,-0.04898 0.98447,0 1.47671,0 0.57428,0 1.14855,0 1.72283,0 0.26458,0 0.96601,0 1.23059,0 0.082,0 0.17274,0.03669 0.24612,0 0.10377,-0.05189 0.14235,-0.194233 0.24612,-0.246121 0.0647,-0.03236 0.85578,0 0.98448,0 0.82039,0 1.64079,0 2.46118,0 2.70731,0 5.41461,0 8.12192,0"
         style="fill:none;stroke:#502d16;stroke-width:0.26458332px;stroke-linecap:butt;stroke-linejoin:miter;stroke-opacity:1" />
      <path
         clip-path="url(#clipPath186)"
         inkscape:connector-curvature="0"
         id="path110"
         d="m 142.74884,91.244765 c 2.57166,0 -0.37651,-0.103774 1.72284,0.246119 0.24277,0.04046 0.49223,0 0.73835,0 0.49224,0 0.98448,0 1.47671,0 1.72284,0 3.44567,0 5.1685,0 5.57869,0 11.15738,0 16.73607,0"
         style="fill:none;stroke:#502d16;stroke-width:0.26458332px;stroke-linecap:butt;stroke-linejoin:miter;stroke-opacity:1" />
      <path
         clip-path="url(#clipPath182)"
         inkscape:connector-curvature="0"
         id="path112"
         d="m 162.93058,100.35116 c 0.32816,0.16408 0.65632,0.32815 0.98447,0.49223 0.16408,0 0.33658,-0.0519 0.49224,0 0.11007,0.0367 0.14235,0.19424 0.24612,0.24612 0.23204,0.11602 0.49748,0.14977 0.73835,0.24612 0.17033,0.0681 0.31821,0.18811 0.49224,0.24612 0.15448,0.0515 0.78634,0 0.98448,0 0.73835,0 1.47671,0 2.21507,0 2.46118,0 4.92237,0 7.38356,0 0.82039,0 1.64079,0 2.46118,0 0.17445,0 1.41308,0.0318 1.47672,0 0.10377,-0.0519 0.16407,-0.16408 0.24611,-0.24612"
         style="fill:none;stroke:#502d16;stroke-width:0.26458332px;stroke-linecap:butt;stroke-linejoin:miter;stroke-opacity:1" />
      <path
         clip-path="url(#clipPath178)"
         inkscape:connector-curvature="0"
         id="path114"
         d="m 177.94382,94.936544 c 0.82039,0 1.64079,0 2.46119,0 0.082,0 0.16407,0 0.24611,0 0.082,0 0.17275,-0.03669 0.24612,0 0.10378,0.05189 0.14235,0.194234 0.24612,0.246118 0.0734,0.03669 0.16829,-0.02595 0.24612,0 0.17403,0.05801 0.31821,0.188109 0.49224,0.246121 0.14675,0.04892 1.23825,0 1.47671,0"
         style="fill:none;stroke:#502d16;stroke-width:0.26458332px;stroke-linecap:butt;stroke-linejoin:miter;stroke-opacity:1" />
      <path
         clip-path="url(#clipPath174)"
         inkscape:connector-curvature="0"
         id="path116"
         d="m 126.75113,104.28905 c -2.62527,0 -5.25053,0 -7.8758,0 -0.57428,0 -1.14855,0 -1.72283,0 -0.49224,0 -0.98785,0.0575 -1.47671,0 -3.01655,-0.35488 -2.04343,-0.56283 -4.67626,-0.73835 -0.81858,-0.0546 -1.64079,0 -2.46118,0 -1.31264,0 -2.62527,0 -3.9379,0 -1.47672,0 -2.95343,0 -4.43014,0 -0.492237,0 -0.984475,0 -1.476712,0 -0.164078,0 -0.328157,0 -0.492238,0 -0.164079,0 -0.333058,0.0398 -0.492236,0 -0.17797,-0.0445 -0.328158,-0.16408 -0.492239,-0.24612 -0.246118,-0.082 -0.48396,-0.19524 -0.738354,-0.24612 -0.160893,-0.0322 -0.336579,0.0519 -0.492239,0 -0.110067,-0.0367 -0.142346,-0.19423 -0.246118,-0.24612 -0.07338,-0.0367 -0.164079,0 -0.246118,0 -0.103534,0 -1.403498,0.0366 -1.476714,0 -0.103772,-0.0519 -0.142346,-0.19423 -0.246118,-0.24611 -0.07338,-0.0367 -0.164079,0 -0.246118,0 -0.08204,0 -0.164079,0 -0.246118,0 -0.285909,0 -1.007478,0.0558 -1.230596,0 -0.177966,-0.0445 -0.318203,-0.18811 -0.492236,-0.24613 -0.07783,-0.0259 -0.164078,0 -0.246118,0 -0.410199,0 -0.820396,0 -1.230595,0 -0.984475,0 -1.96895,0 -2.953422,0"
         style="fill:none;stroke:#502d16;stroke-width:0.26458332px;stroke-linecap:butt;stroke-linejoin:miter;stroke-opacity:1" />
      <path
         clip-path="url(#clipPath170)"
         inkscape:connector-curvature="0"
         id="path118"
         d="m 66.452048,103.79682 c -3.445661,0 -6.891324,0 -10.336985,0"
         style="fill:none;stroke:#502d16;stroke-width:0.26458332px;stroke-linecap:butt;stroke-linejoin:miter;stroke-opacity:1" />
      <path
         clip-path="url(#clipPath166)"
         inkscape:connector-curvature="0"
         id="path120"
         d="m 42.086297,104.28905 c -0.339908,0.51301 -1.03609,0.13597 -1.476711,0.24613 -2.018858,0.50471 1.942811,0.004 -1.476714,0.49223 -0.243644,0.0348 -0.492236,0 -0.738354,0 -0.820396,0 -1.640793,0 -2.461189,0 -2.379146,0 -4.758293,0 -7.137442,0 -0.738354,0 -1.476711,0 -2.215068,0 -0.08204,0 -0.164079,0 -0.246118,0 -0.08204,0 -0.188108,0.058 -0.246119,0 -0.05801,-0.058 0,-0.16408 0,-0.24612"
         style="fill:none;stroke:#502d16;stroke-width:0.26458332px;stroke-linecap:butt;stroke-linejoin:miter;stroke-opacity:1" />
      <path
         clip-path="url(#clipPath162)"
         inkscape:connector-curvature="0"
         id="path122"
         d="m 35.441093,99.612801 c 1.558751,0 3.117504,0 4.676254,0 0.290719,0 1.330357,-0.04879 1.476714,0 0.110066,0.03669 0.142345,0.19423 0.246118,0.246118 0.07299,0.0365 1.23866,0 1.476713,0 1.230593,0 2.461186,0 3.691779,0"
         style="fill:none;stroke:#502d16;stroke-width:0.26458332px;stroke-linecap:butt;stroke-linejoin:miter;stroke-opacity:1" />
      <path
         clip-path="url(#clipPath158)"
         inkscape:connector-curvature="0"
         id="path124"
         d="m 141.27213,103.79682 c 3.11751,0 6.23501,0 9.35251,0"
         style="fill:none;stroke:#502d16;stroke-width:0.26458332px;stroke-linecap:butt;stroke-linejoin:miter;stroke-opacity:1" />
      <path
         clip-path="url(#clipPath154)"
         inkscape:connector-curvature="0"
         id="path126"
         d="m 116.41414,96.659376 c -1.39467,0 -2.78934,0 -4.18401,0 -0.18789,0 -1.32165,0.05169 -1.47671,0 -0.17404,-0.05801 -0.32816,-0.164079 -0.49224,-0.246118"
         style="fill:none;stroke:#502d16;stroke-width:0.26458332px;stroke-linecap:butt;stroke-linejoin:miter;stroke-opacity:1" />
      <path
         clip-path="url(#clipPath150)"
         inkscape:connector-curvature="0"
         id="path128"
         d="m 103.36985,99.120562 c -0.49223,-0.08204 -0.98154,-0.184222 -1.47671,-0.246118 -0.40703,-0.05088 -0.8204,0 -1.23059,0 -1.148555,0 -2.297109,0 -3.445665,0 -2.953422,0 -5.906847,0 -8.860271,0 -0.656318,0 -1.312635,0 -1.96895,0 -0.246118,0 -0.497017,-0.04827 -0.738357,0 -0.254394,0.05088 -0.482455,0.203467 -0.738357,0.246118 -0.10214,0.01701 -1.432364,-0.01773 -1.476711,0 -0.215447,0.08618 -0.276791,0.406059 -0.492239,0.492239 -0.228515,0.0914 -0.495585,-0.04046 -0.738354,0 -0.255902,0.04265 -0.492239,0.164078 -0.738357,0.246118 -0.54556,0.181851 -1.234374,0.412721 -1.722831,0.738361 -0.09654,0.0644 -0.142346,0.19423 -0.246118,0.24611 -0.07338,0.0367 -0.164079,0 -0.246118,0 -0.164079,0 -0.328161,0 -0.492239,0 -0.410197,0 -0.820396,0 -1.230593,0 -1.558751,0 -3.117504,0 -4.676257,0 -1.066514,0 -2.133028,0 -3.199542,0 -0.410197,0 -0.825977,-0.0674 -1.230593,0 -1.94369,0.32395 0.44305,0.24612 -1.476711,0.24612 -0.984475,0 -1.96895,0 -2.953425,0 -0.06881,0 -1.192085,-0.0193 -1.230593,0 -0.07338,0.0367 0.05801,0.18811 0,0.24612 -0.05801,0.058 -0.164081,0 -0.246121,0 -0.164078,0 -0.328157,0 -0.492236,0 -0.492238,0 -0.984475,0 -1.476713,0 -0.08655,0 -0.694299,-0.0275 -0.738354,0 -1.254181,0.78386 -2.461189,1.64079 -3.691782,2.46119"
         style="fill:none;stroke:#502d16;stroke-width:0.26458332px;stroke-linecap:butt;stroke-linejoin:miter;stroke-opacity:1" />
      <path
         clip-path="url(#clipPath146)"
         inkscape:connector-curvature="0"
         id="path130"
         d="m 135.11917,78.200474 c -3.19955,0 -6.39909,0 -9.59863,0 -0.65632,0 -1.31264,0 -1.96895,0 -0.20838,0 -0.85216,0.0441 -0.98448,0 -0.11007,-0.03669 -0.14234,-0.194233 -0.24612,-0.246118 -0.0734,-0.03669 -0.16408,0 -0.24612,0 -0.16407,0 -0.32816,0 -0.49223,0 -0.16408,0 -0.32816,0 -0.49224,0 -0.082,0 -0.17274,0.03669 -0.24612,0 -0.10377,-0.05189 -0.13605,-0.209431 -0.24612,-0.246121 -0.11257,-0.03752 -0.87495,0.05476 -0.98447,0 -0.60826,-0.304128 0.0849,-0.246118 -0.49224,-0.246118 -0.082,0 -0.30156,-0.06048 -0.24612,0 0.94078,1.026308 1.96895,1.96895 2.95343,2.953425"
         style="fill:none;stroke:#502d16;stroke-width:0.26458332px;stroke-linecap:butt;stroke-linejoin:miter;stroke-opacity:1" />
      <path
         clip-path="url(#clipPath142)"
         inkscape:connector-curvature="0"
         id="path132"
         d="m 181.6356,75.493167 c 1.31263,0 2.62527,0 3.9379,0 0.32209,0 0.95302,-0.05551 1.23059,0 0.2544,0.05088 0.48396,0.195242 0.73836,0.246118 0.16089,0.03218 0.32816,0 0.49224,0 0.57427,0 1.14855,0 1.72283,0"
         style="fill:none;stroke:#502d16;stroke-width:0.26458332px;stroke-linecap:butt;stroke-linejoin:miter;stroke-opacity:1" />
      <path
         clip-path="url(#clipPath138)"
         inkscape:connector-curvature="0"
         id="path134"
         d="m 183.11231,58.01874 c 0.0263,0.41288 2.32023,0.175638 2.46119,0.246118 0.10377,0.05189 0.14234,0.194233 0.24612,0.246118 0.0647,0.03236 0.85577,0 0.98447,0"
         style="fill:none;stroke:#502d16;stroke-width:0.26458332px;stroke-linecap:butt;stroke-linejoin:miter;stroke-opacity:1" />
    </g>
  </g>
</svg>
